# xmcd
#
# Track frame offsets:
#	150
#	16800
#	23460
#	42870
#	56454
#	72495
#	90782
#	116489
#	134116
#	147496
#	164375
#	185265
#
# Disc length: 2720 seconds
#
# Revision: 0
# Processed by: cddbd v1.5.2PL0 Copyright (c) Steve Scherf et al.
# Submitted via: dBpowerAMP V4.0
#
DISCID=9a0a9e0c
DTITLE=Cool D - Tumeaine
DYEAR=2012
DGENRE=Hip-Hop
TTITLE0=Suva
TTITLE1=Ürje
TTITLE2=Eestimaa uhkus
TTITLE3=Maakri tn. rappija
TTITLE4=Medelejev mus oled
TTITLE5=Mul on paha tuju
TTITLE6=Pessimistlik
TTITLE7=Surm käib ringi me tänaval
TTITLE8=Buutleeg
TTITLE9=Poltergeist
TTITLE10=Silmis on sära
TTITLE11=Viimane minut
EXTD=
EXTT0=
EXTT1=
EXTT2=
EXTT3=
EXTT4=
EXTT5=
EXTT6=
EXTT7=
EXTT8=
EXTT9=
EXTT10=
EXTT11=
PLAYORDER=
